<svg width="1081" height="435" viewBox="0 0 1081 435" fill="none" xmlns="http://www.w3.org/2000/svg">
<g clip-path="url(#clip0_36_2)">
<path d="M185.68 0.929928C188.89 -1.41007 192.52 1.23993 195.42 2.79993C209.68 11.5499 224.72 19.0299 238.59 28.4199C222.57 38.0299 206.43 47.4499 189.97 56.2899C188.61 57.4399 187.11 56.1299 185.84 55.5399C170.42 46.7799 154.95 38.0499 140.05 28.4099C154.41 17.8999 170.42 9.98993 185.68 0.929928Z" fill="#F58635"/>
<path d="M5.44015 104.77C38.0502 86.4102 70.2402 67.3102 102.83 48.9102C119.68 58.1302 136.18 67.9702 152.76 77.6602C119.98 98.5302 85.0302 115.76 52.2802 136.68C49.0302 174.56 52.9502 212.64 50.2202 250.54C35.5502 243.93 22.0902 235.03 8.07015 227.2C4.75015 225.1 0.130152 222.85 0.0901518 218.33C0.0401518 183.28 0.0901518 148.23 0.0201518 113.18C-0.259848 109.49 2.28015 106.34 5.44015 104.77Z" fill="#F58634"/>
<path d="M227.99 79.8899C244.17 69.3499 261.25 60.2899 277.97 50.6699C311.23 69.2699 343.84 88.9999 377.17 107.48C377.62 147.12 377.34 186.75 377.33 226.39C360.88 236.23 344.26 245.83 327.3 254.75C326.74 216.58 327.3 178.39 326.99 140.21C326.96 136.77 323.49 135.03 320.98 133.39C289.94 115.63 258.99 97.7199 227.99 79.8899ZM419.93 87.7899C431.74 87.8199 443.56 87.6299 455.38 87.8799C455.4 107.17 455.31 126.46 455.42 145.75C495.51 145.79 535.61 145.79 575.7 145.75C575.94 126.42 575.45 107.07 575.94 87.7499C587.66 87.7699 599.38 87.7899 611.11 87.7399C611.56 139.9 611.21 192.08 611.28 244.24C599.44 244.29 587.61 244.29 575.78 244.24C575.67 222.76 575.83 201.29 575.71 179.81C535.61 179.8 495.51 179.77 455.42 179.83C455.29 201.3 455.45 222.77 455.34 244.24C443.51 244.29 431.67 244.3 419.84 244.24C419.85 192.09 419.68 139.93 419.93 87.7899ZM633.91 87.7799C645.83 87.7699 657.75 87.7499 669.67 87.7799C669.77 139.92 669.69 192.07 669.71 244.21C657.75 244.3 645.78 244.28 633.81 244.21C633.81 192.06 633.64 139.91 633.91 87.7599M904.93 87.7899C962.79 87.7699 1020.66 87.7499 1078.52 87.7999C1078.61 98.2699 1078.54 108.74 1078.56 119.21C1032.5 119.42 986.44 119.17 940.38 119.33C940.38 129.47 940.32 139.61 940.42 149.74C983.89 149.84 1027.37 149.69 1070.84 149.81C1070.83 159.29 1070.85 168.77 1070.83 178.24C1027.35 178.38 983.86 178.19 940.38 178.33C940.39 189.8 940.32 201.27 940.42 212.74C987.1 212.84 1033.78 212.69 1080.47 212.81C1080.52 223.29 1080.53 233.77 1080.47 244.25C1021.93 244.28 963.39 244.3 904.85 244.24C904.84 192.09 904.68 139.93 904.93 87.7899ZM680.49 87.8099C694.07 87.7299 707.64 87.7699 721.22 87.7799C743.98 127.14 766.31 166.75 789.03 206.14C811.74 166.74 833.87 126.99 856.8 87.7199C869.75 87.8699 882.72 87.6699 895.68 87.8199C865.23 140.02 834.67 192.15 804.06 244.25C793.39 244.29 782.73 244.29 772.07 244.24C741.48 192.14 710.86 140.04 680.49 87.8099ZM327.34 297.66C342.84 286 360.3 277.38 377.27 268.13C377.39 287.44 377.66 306.75 377.08 326.05C360.19 334.99 344.27 345.66 327.13 354.12C327.13 335.3 326.59 316.47 327.34 297.66Z" fill="#95BF47"/>
<path d="M186.78 101.02C188.59 99.7899 190.73 100.91 192.41 101.82C224.93 120.65 257.45 139.48 290.04 158.2C290.33 194.88 290.02 231.56 290.28 268.24C290 271.15 290.91 275.3 287.64 276.82C254.58 295.58 221.9 315.01 188.76 333.62C155.02 314.15 121.25 294.75 87.5801 275.19C87.6701 236.26 87.6201 197.32 87.6201 158.39C120.6 139.14 153.75 120.18 186.78 101.02ZM137.03 186.49C136.81 206.64 136.79 226.79 137.04 246.94C154.31 256.86 171.57 266.79 188.78 276.81C205.92 266.28 224.34 257.81 240.6 245.88C241.43 226.65 240.58 207.4 241 188.16C241.32 186.68 239.66 186.19 238.74 185.54C222.1 175.99 205.61 166.17 188.83 156.85C171.57 166.74 154.41 176.81 137.03 186.49ZM695.4 265.78C728.63 265.76 761.86 265.77 795.1 265.77C800.9 265.68 807.5 267.45 810.54 272.84C814.13 279.37 813.12 287.1 813.21 294.26C813.27 300.25 811.15 306.87 805.47 309.77C812.54 311.81 815.87 319.32 815.67 326.19C815.44 334.23 816.92 342.88 813.17 350.34C810.36 355.82 803.83 357.77 798.07 357.76C763.85 357.78 729.62 357.78 695.4 357.76C695.36 327.1 695.36 296.44 695.4 265.78ZM717.99 283.31C717.89 289.79 717.91 296.27 717.98 302.75C740.66 302.68 763.36 303.01 786.02 302.58C791.66 302.13 790.64 295.17 790.7 291.2C791.11 287.61 789.39 283.07 785.09 283.37C762.73 283.19 740.36 283.31 717.99 283.31ZM717.98 317.83C717.9 325.3 717.93 332.77 717.96 340.25C741.32 340.2 764.71 340.45 788.07 340.13C793.65 339.92 793.26 333.27 793.18 329.27C793.19 325.15 793.94 318.08 788.04 317.93C764.69 317.64 741.33 317.85 717.98 317.83ZM1047.4 265.76C1057.45 265.79 1067.5 265.74 1077.55 265.79C1061.35 280.91 1044.9 295.77 1028.74 310.92C1045.42 326.56 1062.19 342.1 1078.83 357.78C1068.34 357.78 1057.84 357.74 1047.35 357.8C1035.68 347.21 1024.31 336.28 1012.74 325.59C1001.01 336.28 989.48 347.18 977.68 357.79C967.64 357.73 957.6 357.82 947.57 357.74C964.2 342.29 980.98 326.99 997.62 311.54C981.45 296.19 964.99 281.15 948.83 265.8C959.3 265.72 969.77 265.82 980.25 265.74C991.48 275.98 1002.45 286.5 1013.64 296.79C1024.92 286.48 1036.07 276.02 1047.4 265.76ZM832.09 272.3C835.22 267.32 841.49 265.73 847.04 265.78C872.03 265.76 897.02 265.77 922.01 265.77C927.36 265.73 933.34 267.11 936.63 271.69C940.66 277.36 940.06 284.68 940.13 291.27C940.03 297.99 940.79 305.3 937.14 311.31C934.12 316.29 928.11 318.21 922.63 318.76C899.82 320.74 876.95 322.26 854.16 324.4C847.32 325.74 849.58 334.27 849.22 339.25C879.06 339.31 908.91 339.23 938.75 339.29C938.74 345.45 938.77 351.6 938.73 357.76C901.62 357.76 864.51 357.78 827.4 357.76C827.5 346.34 827.06 334.89 827.64 323.49C827.9 315.26 834.69 308.49 842.83 307.89C866.17 305.62 889.61 304.24 912.96 302.04C919.23 301.43 918.43 293.78 918.2 289.23C918.44 285.79 915.54 282.98 912.12 283.33C893.11 283.33 874.09 283.11 855.09 283.43C849.76 283.68 850.09 289.93 850.07 293.79C843.08 293.81 836.09 293.8 829.1 293.8C829.19 286.61 828.15 278.73 832.09 272.3Z" fill="white"/>
<path d="M0.410099 268.12C17.6101 276.52 33.7101 286.93 50.3801 296.3C51.4801 315.55 51.7901 334.89 50.2401 354.13C35.0401 346.17 20.5001 337.04 5.4801 328.76C3.4501 327.35 0.190099 326.16 0.330099 323.2C-0.109901 304.85 -0.0899007 286.48 0.410099 268.12Z" fill="#00A1E0"/>
<path d="M86.6503 317.41C120.78 336.71 154.54 356.69 188.68 375.99C222.3 357.71 254.87 337.59 288.39 319.13C288.47 338.35 289.65 357.65 287.82 376.82C255.14 396.69 221.97 415.93 188.31 434.04C154.4 414.86 120.94 394.85 86.8803 375.92C86.0903 356.43 86.5803 336.91 86.6503 317.41Z" fill="#00A1E0"/>
</g>
<defs>
<clipPath id="clip0_36_2">
<rect width="1080.51" height="434.04" fill="white"/>
</clipPath>
</defs>
</svg>
